# xmcd
#
# Track frame offsets:
#	150
#	26247
#	34493
#	66369
#	82783
#	103857
#	118146
#	127080
#	150775
#	164671
#	182904
#	196327
#	214962
#	227963
#	263734
#	287673
#	309828
#	328194
#
# Disc length: 4667 seconds
#
# Revision: 0
# Processed by: cddbd v1.5.1PL0 Copyright (c) Steve Scherf et al.
# Submitted via: EasyCDDAExtractor 8.2.3.1
#
DISCID=0c123912
DTITLE=Richie Haven - High Flyin' Bird - The Verve Forecast Years CD 2
DYEAR=1900
DGENRE=Blues
TTITLE0=Run Shake Life
TTITLE1=Stop Pulling and Pushing Me
TTITLE2=For Haven's Sake
TTITLE3=Strawberry Fields Forever
TTITLE4=What More Can I Say John?
TTITLE5=I Pity the Poor Immigrant
TTITLE6=Lady Madonna
TTITLE7=Priests
TTITLE8=Indiian Rope Man
TTITLE9=Cautiously
TTITLE10=Just Above the Hobby Horses Head
TTITLE11=She's Leaving Home
TTITLE12=Putting Out The Vibration, and Hoping It Comes Home
TTITLE13=The Parable of Ramon (Live)
TTITLE14=With A Little Help From My Friends (Live)
TTITLE15=Wear Your Love Like Heaven (Live)
TTITLE16=Run Shaker Life (Live)
TTITLE17=Do You Feel Good? (Live)
EXTD=
EXTT0=
EXTT1=
EXTT2=
EXTT3=
EXTT4=
EXTT5=
EXTT6=
EXTT7=
EXTT8=
EXTT9=
EXTT10=
EXTT11=
EXTT12=
EXTT13=
EXTT14=
EXTT15=
EXTT16=
EXTT17=
PLAYORDER=
